#!OML:ASF F:\VICON\USERDATA\INSTALL\rory3\rory3.ASF
:FULLY-SPECIFIED
:DEGREES
288
root 3.90967 17.9452 -5.05025 -2.59613 -58.5422 7.83773
lowerback 3.77652 2.69607 -6.83196
upperback 1.0452 3.23768 -2.95787
thorax -1.24597 1.60523 0.609932
lowerneck -7.28296 -1.15595 -5.12726
upperneck 22.2833 -1.36282 1.44473
head 8.13437 -1.03098 1.20847
rclavicle 1.15593e-013 5.56597e-015
rhumerus -36.5999 -4.49825 -82.4777
rradius 28.4598
rwrist -1.59867
rhand -10.6247 15.9728
rfingers 7.12502
rthumb 15.382 -13.435
lclavicle 1.15593e-013 5.56597e-015
lhumerus -36.7464 -2.34014 80.6841
lradius 31.1941
lwrist 11.8425
lhand -5.03156 28.9091
lfingers 7.12502
lthumb 20.7631 57.8183
rfemur -14.9852 -4.74995 15.0807
rtibia 65.2836
rfoot 1.69883 3.85332
rtoes -21.7558
lfemur -17.2303 -0.814739 -28.8935
ltibia 19.0221
lfoot -8.78609 8.90766
ltoes -20.1372
289
root 3.84309 17.9522 -4.99009 -2.573 -58.464 7.77037
lowerback 3.83657 2.66176 -6.84041
upperback 1.03928 3.18557 -2.95375
thorax -1.2832 1.5803 0.618732
lowerneck -7.22722 -1.11402 -5.10656
upperneck 22.2557 -1.30384 1.4105
head 8.11246 -1.00466 1.19913
rclavicle -3.34952e-014 -1.66979e-014
rhumerus -36.5484 -4.68545 -82.3945
rradius 28.461
rwrist -1.45538
rhand -10.5623 16.135
rfingers 7.12502
rthumb 15.4421 -13.2681
lclavicle -3.34952e-014 -1.66979e-014
lhumerus -36.5004 -2.82712 81.0096
lradius 31.9095
lwrist 12.2011
lhand -4.99517 28.8245
lfingers 7.12502
lthumb 20.7981 57.7298
rfemur -16.1728 -5.03819 15.007
rtibia 66.7665
rfoot 1.69273 3.80052
rtoes -21.3781
lfemur -16.7554 -0.903074 -28.9305
ltibia 18.835
lfoot -8.90611 8.94993
ltoes -20.4123
290
root 3.77727 17.9593 -4.9301 -2.58396 -58.3531 7.69862
lowerback 3.95515 2.65361 -6.81842
upperback 1.05319 3.16448 -2.96247
thorax -1.33224 1.57052 0.593555
lowerneck -7.21798 -1.10894 -5.09487
upperneck 22.2474 -1.29637 1.40001
head 8.10754 -1.00092 1.19438
rclavicle 5.86415e-014 3.18055e-015
rhumerus -36.357 -4.86383 -82.3513
rradius 28.3912
rwrist -1.43631
rhand -10.6047 16.2721
rfingers 7.12502
rthumb 15.4012 -13.1343
lclavicle 5.86415e-014 3.18055e-015
lhumerus -36.1933 -3.38596 81.335
lradius 32.6181
lwrist 12.546
lhand -5.13958 28.7316
lfingers 7.12502
lthumb 20.6593 57.6521
rfemur -17.3024 -5.33687 14.9417
rtibia 68.1187
rfoot 1.54668 3.72125
rtoes -20.4059
lfemur -16.2303 -0.956974 -28.9632
ltibia 18.6159
lfoot -9.11767 8.71873
ltoes -19.4499
291
root 3.7113 17.9627 -4.87012 -2.69759 -58.2113 7.77487
lowerback 4.0394 2.60569 -6.89111
upperback 1.06575 3.08879 -2.99285
thorax -1.36388 1.53299 0.603253
lowerneck -7.33627 -1.08536 -5.05066
upperneck 22.375 -1.26535 1.39853
head 8.17047 -0.984639 1.18907
rclavicle 3.12092e-014 1.35174e-014
rhumerus -36.1544 -4.93988 -82.35
rradius 28.3769
rwrist -1.45402
rhand -10.5718 16.3067
rfingers 7.12502
rthumb 15.433 -13.0972
lclavicle 3.12092e-014 1.35174e-014
lhumerus -35.8904 -3.97286 81.6331
lradius 33.4108
lwrist 13.0826
lhand -5.19551 28.7293
lfingers 7.12502
lthumb 20.6056 57.6556
rfemur -18.4423 -5.68479 14.8051
rtibia 69.3374
rfoot 1.26385 3.81032
rtoes -20.7869
lfemur -15.7541 -1.03178 -29.0831
ltibia 18.3861
lfoot -9.14237 8.44985
ltoes -19.5774
292
root 3.64399 17.9657 -4.81065 -2.91264 -58.1539 7.96338
lowerback 4.10648 2.55659 -7.06086
upperback 1.0781 3.00889 -3.0086
thorax -1.39144 1.49338 0.682613
lowerneck -7.43302 -1.04267 -5.05287
upperneck 22.4785 -1.20446 1.40888
head 8.22091 -0.956808 1.19836
rclavicle -3.63776e-014 2.06736e-014
rhumerus -35.9996 -4.91386 -82.3475
rradius 28.439
rwrist -1.49568
rhand -10.4585 16.3272
rfingers 7.12502
rthumb 15.5421 -13.0683
lclavicle -3.63776e-014 2.06736e-014
lhumerus -35.6233 -4.53509 81.9433
lradius 34.2505
lwrist 13.6938
lhand -5.17201 28.9053
lfingers 7.12502
lthumb 20.6281 57.8292
rfemur -19.5537 -5.89198 14.6218
rtibia 70.409
rfoot 0.981924 3.98939
rtoes -20.9905
lfemur -15.2451 -1.16386 -29.2536
ltibia 18.1264
lfoot -9.09701 8.535
ltoes -20.1988
293
root 3.57681 17.9709 -4.75404 -2.92048 -58.1314 7.95502
lowerback 4.12841 2.51795 -7.17741
upperback 1.08619 2.95192 -2.95539
thorax -1.40018 1.46548 0.804306
lowerneck -7.47492 -1.0005 -5.08696
upperneck 22.4947 -1.12768 1.36097
head 8.23164 -0.928136 1.19509
rclavicle 6.83819e-014 -1.03368e-014
rhumerus -35.8291 -4.89141 -82.2784
rradius 28.5096
rwrist -1.43955
rhand -10.4872 16.302
rfingers 7.12502
rthumb 15.5145 -13.0956
lclavicle 6.83819e-014 -1.03368e-014
lhumerus -35.285 -4.9666 82.2437
lradius 35.0131
lwrist 13.9067
lhand -4.58131 29.5066
lfingers 7.12502
lthumb 21.1956 58.3679
rfemur -20.6952 -6.02827 14.6008
rtibia 71.3274
rfoot 0.781232 4.19467
rtoes -20.677
lfemur -14.7793 -1.49422 -29.2781
ltibia 17.9222
lfoot -9.25784 8.86087
ltoes -19.6443
294
root 3.5097 17.9782 -4.69823 -2.86934 -58.0817 7.90245
lowerback 4.12218 2.49848 -7.23419
upperback 1.0797 2.92468 -2.92443
thorax -1.40594 1.45252 0.869245
lowerneck -7.43046 -0.993752 -5.01695
upperneck 22.4878 -1.10691 1.24343
head 8.21967 -0.924094 1.14602
rclavicle 4.47266e-014 -5.56597e-015
rhumerus -35.6917 -4.87544 -82.2553
rradius 28.5974
rwrist -1.47921
rhand -10.5738 16.307
rfingers 7.12502
rthumb 15.431 -13.097
lclavicle 4.47266e-014 -5.56597e-015
lhumerus -34.9128 -5.46868 82.5112
lradius 35.7326
lwrist 14.0486
lhand -4.11604 30.0975
lfingers 7.12502
lthumb 21.6425 58.908
rfemur -21.8214 -6.11172 14.633
rtibia 72.0917
rfoot 0.565039 4.32295
rtoes -20.4292
lfemur -14.4347 -1.87812 -29.2802
ltibia 17.8939
lfoot -9.54519 9.17412
ltoes -19.3666
295
root 3.44341 17.9811 -4.6398 -2.79192 -57.9725 7.78278
lowerback 4.12749 2.44784 -7.21167
upperback 1.07873 2.85932 -2.88365
thorax -1.40638 1.42041 0.902687
lowerneck -7.37845 -0.981141 -5.02828
upperneck 22.5343 -1.08756 1.21854
head 8.22524 -0.920032 1.14162
rclavicle -1.79204e-013 2.70347e-014
rhumerus -35.6008 -4.67547 -82.2836
rradius 28.7415
rwrist -1.68207
rhand -10.6525 16.2744
rfingers 7.12502
rthumb 15.3553 -13.1355
lclavicle -1.79204e-013 2.70347e-014
lhumerus -34.5896 -5.95858 82.8188
lradius 36.4046
lwrist 14.5618
lhand -4.74126 29.7506
lfingers 7.12502
lthumb 21.042 58.629
rfemur -22.8413 -6.21523 14.6848
rtibia 72.7052
rfoot 0.384846 4.55462
rtoes -20.0814
lfemur -14.1144 -2.11531 -29.2866
ltibia 18.0417
lfoot -10.1471 9.28082
ltoes -18.0977
296
root 3.37796 17.9854 -4.58111 -2.54993 -57.8474 7.44929
lowerback 4.17707 2.38405 -7.06974
upperback 1.08408 2.77913 -2.80897
thorax -1.42008 1.38134 0.904443
lowerneck -7.38118 -0.962582 -5.07767
upperneck 22.6301 -1.06281 1.24628
head 8.25773 -0.912267 1.16166
rclavicle 7.18607e-014 -4.29375e-014
rhumerus -35.4698 -4.58172 -82.2827
rradius 28.842
rwrist -1.89417
rhand -10.621 16.173
rfingers 7.12502
rthumb 15.3856 -13.2345
lclavicle 7.18607e-014 -4.29375e-014
lhumerus -34.347 -6.56455 83.1616
lradius 37.1346
lwrist 15.4143
lhand -5.56377 29.0406
lfingers 7.12502
lthumb 20.2517 58.0048
rfemur -23.8184 -6.31383 14.8997
rtibia 73.1611
rfoot 0.322324 4.74213
rtoes -19.3567
lfemur -13.8724 -2.18708 -29.1894
ltibia 18.2425
lfoot -10.6843 9.27791
ltoes -17.043
297
root 3.31201 17.991 -4.52518 -2.35101 -57.7946 7.22797
lowerback 4.17237 2.3656 -6.98163
upperback 1.07176 2.75948 -2.78467
thorax -1.42597 1.3722 0.882001
lowerneck -7.3645 -0.959953 -5.02337
upperneck 22.6872 -1.07269 1.25507
head 8.27369 -0.913121 1.15468
rclavicle 5.96354e-015 -1.59028e-015
rhumerus -35.3878 -4.6794 -82.2793
rradius 28.989
rwrist -1.94418
rhand -10.6195 16.2783
rfingers 7.12502
rthumb 15.387 -13.1291
lclavicle 5.96354e-015 -1.59028e-015
lhumerus -34.0943 -7.2481 83.4382
lradius 37.859
lwrist 16.0205
lhand -5.83842 28.6737
lfingers 7.12502
lthumb 19.9877 57.6658
rfemur -24.8572 -6.35169 15.0904
rtibia 73.4963
rfoot 0.03923 4.81899
rtoes -19.6926
lfemur -13.8054 -2.14533 -29.1587
ltibia 18.5103
lfoot -10.7123 9.3016
ltoes -18.0348
298
root 3.24494 17.9848 -4.46912 -2.20648 -57.7685 7.06394
lowerback 4.11064 2.36098 -6.90393
upperback 1.07734 2.76379 -2.77623
thorax -1.38273 1.37325 0.850376
lowerneck -7.36488 -0.974071 -5.00626
upperneck 22.7672 -1.11224 1.32236
head 8.30201 -0.925784 1.1708
rclavicle 4.11484e-014 -7.15625e-015
rhumerus -35.3875 -4.6622 -82.3069
rradius 29.3319
rwrist -2.1339
rhand -10.6475 16.2515
rfingers 7.12502
rthumb 15.3601 -13.1579
lclavicle 4.11484e-014 -7.15625e-015
lhumerus -33.7595 -7.81836 83.6391
lradius 38.577
lwrist 16.2983
lhand -5.87354 28.7899
lfingers 7.12502
lthumb 19.9539 57.7854
rfemur -25.872 -6.31801 15.2452
rtibia 73.7659
rfoot -0.432505 4.72735
rtoes -20.6086
lfemur -13.6215 -2.26993 -29.1492
ltibia 18.8297
lfoot -10.7216 9.4528
ltoes -19.9935
299
root 3.17967 17.9754 -4.41501 -2.07544 -57.6564 6.89937
lowerback 4.1024 2.32133 -6.82362
upperback 1.08664 2.71681 -2.75947
thorax -1.36253 1.34932 0.826838
lowerneck -7.35936 -0.995346 -5.02769
upperneck 22.8369 -1.16227 1.41778
head 8.32659 -0.943737 1.2019
rclavicle 2.16675e-014 2.46493e-014
rhumerus -35.3366 -4.59995 -82.3488
rradius 29.5775
rwrist -2.42805
rhand -10.7043 16.2717
rfingers 7.12502
rthumb 15.3054 -13.1419
lclavicle 2.16675e-014 2.46493e-014
lhumerus -33.4359 -8.31176 83.8006
lradius 39.3584
lwrist 16.5106
lhand -5.87493 28.8657
lfingers 7.12502
lthumb 19.9526 57.8614
rfemur -26.8242 -6.30797 15.4152
rtibia 73.9311
rfoot -1.00476 4.51052
rtoes -21.8811
lfemur -13.3341 -2.63263 -29.0932
ltibia 19.0912
lfoot -11.291 9.50867
ltoes -18.7715
300
root 3.11409 17.9702 -4.36025 -2.06403 -57.539 6.82967
lowerback 4.1611 2.2595 -6.82867
upperback 1.09992 2.63037 -2.73026
thorax -1.37759 1.30657 0.862914
lowerneck -7.45426 -0.995749 -5.03507
upperneck 22.9856 -1.16443 1.43905
head 8.39463 -0.946101 1.21009
rclavicle 3.17062e-014 -1.27222e-014
rhumerus -35.2255 -4.53494 -82.3766
rradius 29.74
rwrist -2.65343
rhand -10.6936 16.2686
rfingers 7.12502
rthumb 15.3156 -13.1443
lclavicle 3.17062e-014 -1.27222e-014
lhumerus -33.1939 -8.64709 83.9555
lradius 40.1818
lwrist 16.6959
lhand -5.82161 28.821
lfingers 7.12502
lthumb 20.0038 57.8113
rfemur -27.6708 -6.29814 15.5124
rtibia 73.9576
rfoot -1.60587 4.26231
rtoes -22.0778
lfemur -13.096 -2.50789 -29.1107
ltibia 19.3518
lfoot -11.8777 9.05238
ltoes -16.7463
